PathFileType	4	(X/Y/Z)	P:\Projects\LMB_grand_challenge_database\project_only\opensim\experimental_data\SixthCompetition/DM_ngait_og3_new.trc
DataRate	CameraRate	NumFrames	NumMarkers	Units	OrigDataRate	OrigDataStartFrame	OrigNumFrames
120	120	5	68	mm	120	37	302
Frame#	Time	Sternum			Neck			R_Shoulder			L_Shoulder			Xiphoid			Thoracic			R_Asis			L_Asis			R_Psis			L_Psis			Lumbar			R_Elbow			R_ElbowMedial			R_ShoulderAnterior			R_ShoulderPosterior			R_Wrist			R_Radius			R_Ulna			L_Elbow			L_ElbowMedial			L_ShoulderAnterior			L_ShoulderPosterior			L_Wrist			L_Ulna			L_Radius			L_Thigh_Superior			L_Thigh_Inferior			L_Thigh_Lateral			L_Knee_Lateral			L_Knee_Medial			L_Patella			L_Shank_Superior			L_Shank_Inferior			L_Shank_Lateral			L_Ankle_Lateral			L_Ankle_Medial			R_Thigh_Superior			R_Thigh_Inferior			R_Thigh_Lateral			R_Knee_Lateral			R_Knee_Medial			R_Patella			R_Shank_Superior			R_Shank_Inferior			R_Shank_Lateral			R_Ankle_Lateral			RankleMedial			R_Heel			R_Toe			R_Midfoot_Medial			R_Midfoot_Lateral			R_Hindfoot			R_Midfoot_Superior			R_ToeMedial			R_ToeLateral			L_Heel			L_Toe			L_Midfoot_Medial			L_Midfoot_Lateral			L_Hindfoot			L_Midfoot_Superior			L_ToeMedial			L_ToeLateral			Oglobal			Sacral			Xglobal			Yglobal			Zglobal			
		X1	Y1	Z1	X2	Y2	Z2	X3	Y3	Z3	X4	Y4	Z4	X5	Y5	Z5	X6	Y6	Z6	X7	Y7	Z7	X8	Y8	Z8	X9	Y9	Z9	X10	Y10	Z10	X11	Y11	Z11	X12	Y12	Z12	X13	Y13	Z13	X14	Y14	Z14	X15	Y15	Z15	X16	Y16	Z16	X17	Y17	Z17	X18	Y18	Z18	X19	Y19	Z19	X20	Y20	Z20	X21	Y21	Z21	X22	Y22	Z22	X23	Y23	Z23	X24	Y24	Z24	X25	Y25	Z25	X26	Y26	Z26	X27	Y27	Z27	X28	Y28	Z28	X29	Y29	Z29	X30	Y30	Z30	X31	Y31	Z31	X32	Y32	Z32	X33	Y33	Z33	X34	Y34	Z34	X35	Y35	Z35	X36	Y36	Z36	X37	Y37	Z37	X38	Y38	Z38	X39	Y39	Z39	X40	Y40	Z40	X41	Y41	Z41	X42	Y42	Z42	X43	Y43	Z43	X44	Y44	Z44	X45	Y45	Z45	X46	Y46	Z46	X47	Y47	Z47	X48	Y48	Z48	X49	Y49	Z49	X50	Y50	Z50	X51	Y51	Z51	X52	Y52	Z52	X53	Y53	Z53	X54	Y54	Z54	X55	Y55	Z55	X56	Y56	Z56	X57	Y57	Z57	X58	Y58	Z58	X59	Y59	Z59	X60	Y60	Z60	X61	Y61	Z61	X62	Y62	Z62	X63	Y63	Z63	X64	Y64	Z64	X65	Y65	Z65	X66	Y66	Z66	X67	Y67	Z67	X68	Y68	Z68	

38	2.508333	-694.9109999999999	1424.55	209.26	-531.556	1342.05	209.616	-605.6	1368.58	381.269	-615.1369999999999	1395.15	40.0353	-516.619	1175.68	209.63	-785.446	1239.27	192.09	-609.2809999999999	940.1420000000001	328.552	-578.774	961.761	54.2513	-799.83	986.477	202.953	-792.591	986.496	123.951	-795.9589999999999	1035.8	169.716	-679.401	1059.04	473.053	-0	0	0	-0	0	0	-0	0	0	-620.7619999999999	783.318	475.617	-609.165	793.247	433.64	-668.696	788.958	477.174	-481.149	1088.88	-36.7091	-0	0	0	-0	0	0	-0	0	0	-270.158	927.511	26.8693	-310.888	912.873	0.376348	-298.462	943.616	66.6596	-678.876	783.932	16.1558	-723.015	565.978	65.3818	-654.008	643.372	90.68210000000001	-0	0	0	-0	0	0	-732.782	464.424	130.001	-811.624	427.06	53.3447	-946.6079999999999	189.952	45.7544	-857.676	287.05	122.518	-0	0	0	-0	0	0	-654.088	767.602	352.428	-547.086	578.842	320.326	-534.277	720.412	334.996	-0	0	0	-0	0	0	-439.2	530.444	260.306	-512.6849999999999	383.471	337.294	-433.832	189.272	329.139	-413.521	328.945	261.348	-0	0	0	-0	0	0	-461.207	53.8756	276.743	-169.483	108.214	285.98	-237.309	73.682	228.854	-248.739	63.3601	345.109	-357.162	36.1443	331.508	-316.91	142.312	285.995	-199.612	89.5834	241.28	-206.114	83.7723	333.107	-1065.86	83.4569	90.0069	-769.197	47.2716	92.3776	-854.3150000000001	27.1395	146.953	-860.7569999999999	31.5632	32.7381	-966.8390000000001	37.9755	35.2979	-895.785	120.408	93.9162	-808.047	30.2581	134.196	-805.511	33.077	40.1187	-0	0	0	-796.21	986.487	163.452	-200	0	0	-0	0	200	-0	200	0	
39	2.516667	-685.944	1423.19	211.792	-522.371	1340.82	212.279	-597.0549999999999	1366.7	383.787	-605.381	1393.82	43.1392	-507.011	1174.57	211.982	-775.986	1237.76	193.778	-599.033	939.241	330.308	-569.001	960.482	55.9919	-789.828	985.258	204.965	-782.7190000000001	985.298	125.972	-786.02	1034.6	171.684	-670.643	1056.74	474.918	-0	0	0	-0	0	0	-0	0	0	-611.2	781.232	477.12	-599.189	791.256	435.282	-659.047	786.597	478.078	-470.83	1087.26	-32.6371	-0	0	0	-0	0	0	-0	0	0	-261.462	924.701	30.667	-302.22	909.992	4.10257	-289.434	940.747	70.4483	-669.355	781.9059999999999	18.2081	-714.957	564.925	66.29640000000001	-644.848	641.741	91.1041	-0	0	0	-0	0	0	-725.369	461.683	131.201	-805.498	427.068	54.0082	-943.765	191.842	46.0173	-852.852	287.173	122.895	-0	0	0	-0	0	0	-643.274	766.329	352.606	-537.255	577.318	320.378	-524.139	718.424	336.549	-0	0	0	-0	0	0	-429.569	528.51	260.428	-504.766	381.916	336.987	-428.019	187.439	329.241	-405.699	326.621	261.689	-0	0	0	-0	0	0	-458.706	54.9364	276.884	-165.178	98.03870000000001	283.861	-234.549	66.4413	227.512	-245.572	56.154	343.809	-355.197	32.8665	330.946	-311.35	137.694	285.409	-196.753	80.4867	239.514	-202.659	75.0104	331.313	-1064.45	87.0157	90.1495	-768.956	46.7571	92.273	-854.093	26.8118	147.538	-860.199	31.3978	33.3106	-966.059	39.6119	35.5077	-893.672	120.856	94.45140000000001	-807.753	29.8749	134.032	-805.395	32.8285	39.9907	-0	0	0	-786.274	985.278	165.468	-200	0	0	-0	0	200	-0	200	0	
40	2.525	-676.821	1422.05	214.28	-513.054	1340.07	215.17	-588.3630000000001	1365.07	386.512	-596.323	1393.12	45.6041	-497.087	1173.71	214.62	-766.414	1236.51	195.788	-588.646	938.597	332.224	-559.105	959.497	57.7924	-779.703	984.181	207.114	-772.713	984.307	128.116	-775.992	1033.57	173.777	-661.638	1054.68	476.809	-0	0	0	-0	0	0	-0	0	0	-601.169	779.246	478.756	-588.87	789.615	437.097	-649.354	784.573	479.326	-461.026	1086.37	-28.7562	-0	0	0	-0	0	0	-0	0	0	-253.218	921.466	34.0571	-293.933	906.734	7.84793	-280.62	937.73	74.11020000000001	-660.388	780.996	19.6301	-706.026	563.8680000000001	67.3989	-635.631	640.747	91.5489	-0	0	0	-0	0	0	-717.3	459.371	132.496	-798.163	426.671	55.182	-941.376	194.656	46.7046	-847.558	287.392	123.37	-0	0	0	-0	0	0	-633.115	765.15	353.215	-527.587	575.968	320.608	-514.0549999999999	716.63	338.258	-0	0	0	-0	0	0	-420.151	526.893	260.05	-496.528	380.493	337.363	-421.63	185.422	329.671	-398.319	324.685	261.982	-0	0	0	-0	0	0	-456.474	56.4085	277.258	-161.413	87.631	282.582	-232.302	59.0544	226.699	-243.108	49.0732	343.043	-353.699	30.0975	330.77	-305.263	133.56	285.11	-194.081	70.8647	238.382	-199.362	66.1584	330.127	-1062.71	91.1497	90.4594	-768.466	46.1204	92.1936	-853.423	27.2614	147.757	-859.713	31.2326	33.5172	-965.135	41.3937	35.7751	-890.991	121.767	94.1621	-807.455	29.6674	134.099	-805.269	32.5712	39.9207	-0	0	0	-776.208	984.244	167.615	-200	0	0	-0	0	200	-0	200	0	
41	2.533333	-667.694	1421.24	217.014	-503.573	1339.4	218.062	-579.573	1363.55	389.259	-586.624	1392.58	48.3037	-487.308	1172.98	217.34	-756.705	1235.54	197.636	-578.519	938.316	334.255	-549.101	958.687	59.6691	-769.621	983.46	209.05	-762.6660000000001	983.554	130.107	-765.99	1032.85	175.649	-652.36	1052.77	478.436	-0	0	0	-0	0	0	-0	0	0	-591.293	777.639	480.253	-578.282	788.117	438.892	-639.437	782.725	480.49	-451.319	1085.49	-24.8616	-0	0	0	-0	0	0	-0	0	0	-245.714	917.862	37.5156	-286.239	903.3920000000001	11.3165	-272.557	934.2140000000001	77.31910000000001	-651.157	780.2	21.4348	-696.904	562.915	68.6366	-626.176	639.211	92.0399	-0	0	0	-0	0	0	-708.17	457.166	133.511	-789.928	426.4	55.9462	-937.151	196.745	46.9462	-841.7430000000001	287.786	123.798	-0	0	0	-0	0	0	-622.986	764.2670000000001	353.762	-518.179	574.9640000000001	321.17	-503.77	715.386	340.497	-0	0	0	-0	0	0	-410.723	525.6950000000001	260.338	-488.194	379.662	338.222	-415.545	183.674	330.356	-390.916	322.998	262.194	-0	0	0	-0	0	0	-454.078	57.9086	277.599	-158.165	77.9418	282.284	-230.048	51.9413	226.698	-241.069	42.0065	343.026	-352.356	27.8285	330.602	-300.534	128.784	285.434	-191.227	62.9606	238.348	-196.955	57.7032	329.821	-1060.74	95.8593	90.6348	-768.208	45.6517	92.0278	-852.418	28.6976	147.735	-859.025	31.9156	33.4891	-964.277	43.9374	35.9944	-888.186	123.496	93.5488	-807.603	29.9975	134.65	-805.028	32.1758	39.8865	-0	0	0	-766.143	983.5069999999999	169.579	-200	0	0	-0	0	200	-0	200	0	
42	2.541667	-658.3680000000001	1420.81	219.54	-494.139	1339.26	220.874	-570.501	1362.49	391.764	-577.211	1392.84	51.3106	-477.403	1172.68	220.055	-747.006	1235.06	199.455	-568.424	938.78	336.215	-539.202	958.0309999999999	61.3917	-759.604	983.175	210.85	-752.665	983.3049999999999	132.005	-756.0309999999999	1032.62	177.292	-642.9450000000001	1051.19	480.248	-0	0	0	-0	0	0	-0	0	0	-581.066	776.3150000000001	481.606	-567.795	786.939	440.64	-629.3680000000001	781.114	481.5	-441.763	1084.98	-21.0759	-0	0	0	-0	0	0	-0	0	0	-238.782	914.096	40.4224	-279.402	899.7910000000001	14.4099	-265.137	930.4589999999999	80.5915	-641.199	779.116	23.7022	-687.225	562.241	69.9033	-615.775	638.506	92.86960000000001	-0	0	0	-0	0	0	-697.919	454.949	133.971	-780.872	426.064	56.8765	-935.22	200.789	48.1611	-835.348	288.219	124.033	-0	0	0	-0	0	0	-612.6849999999999	763.712	354.258	-508.575	574.657	322.006	-493.556	714.8	342.491	-0	0	0	-0	0	0	-400.905	525.1079999999999	260.631	-479.363	379.525	339.388	-409.776	182.617	330.926	-383.398	321.486	262.486	-0	0	0	-0	0	0	-452.698	59.1019	277.621	-155.576	69.90900000000001	282.991	-228.641	46.0545	228.182	-240.715	36.6615	344.45	-351.51	27.3868	330.672	-296.521	125.391	286.379	-188.717	56.2617	239.705	-195.203	50.8754	330.317	-1058.39	101.331	90.7897	-767.875	45.2083	91.9277	-851.789	29.1169	147.966	-858.395	32.1437	33.7153	-963.244	46.7101	36.1499	-884.749	124.677	93.5128	-807.2569999999999	29.9449	134.702	-804.711	31.9394	39.6645	-0	0	0	-756.135	983.24	171.427	-200	0	0	-0	0	200	-0	200	0	
